<svg width="200" height="200" viewBox="0 0 200 200" fill="none" xmlns="http://www.w3.org/2000/svg">
<rect width="200" height="200" fill="#F5F5F5"/>
<g clip-path="url(#clip0_0_1)">
<rect width="200" height="200" rx="20" fill="#FFFAF4"/>
<path d="M149.164 88.3828V124.125C149.164 138.253 144.77 149.809 135.98 158.793C126.736 168.233 114.691 172.953 99.8477 172.953C85.0039 172.953 72.9596 168.233 63.7148 158.793C54.9258 149.809 50.5312 138.253 50.5312 124.125V70.4141C50.5312 56.2865 54.9258 44.7305 63.7148 35.7461C72.9596 26.306 85.0039 21.5859 99.8477 21.5859C115.212 21.5859 127.257 26.306 135.98 35.7461C144.77 45.1862 149.164 56.0911 149.164 68.4609L130.609 77.25H129.633V70.4141C129.633 61.6901 127.289 54.6263 122.602 49.2227C116.807 42.5169 109.223 39.1641 99.8477 39.1641C90.4727 39.1641 82.888 42.5169 77.0938 49.2227C72.4062 54.6263 70.0625 61.6901 70.0625 70.4141V124.125C70.0625 132.849 72.4062 139.913 77.0938 145.316C82.888 152.022 90.4727 155.375 99.8477 155.375C109.223 155.375 116.807 152.022 122.602 145.316C127.289 139.913 129.633 133.5 129.633 126.078V106.156H95.6484V105.18L103.559 88.3828H149.164Z" fill="#009FE3"/>
</g>
<defs>
<clipPath id="clip0_0_1">
<rect width="200" height="200" rx="20" fill="white"/>
</clipPath>
</defs>
</svg>
